<svg xmlns="http://www.w3.org/2000/svg" width="243.211" height="44.113" viewBox="0 0 243.211 44.113">
    <defs>
        <style>
            .cls-1{fill:#fb2a47}
        </style>
    </defs>
    <g id="LogoMoralar" transform="translate(-346.305 -438)">
        <g id="Grupo_1084" transform="translate(346.305 447.235)">
            <path id="Caminho_684" d="M370.585 487.318h6.2v30.224h-6.962l-.042-13.838-5.731 13.838H359l-5.773-13.669v13.669H346.3v-30.224h6.24l9.041 20.63z" transform="translate(-346.305 -486.936)"/>
            <path id="Caminho_685" d="M544.991 514.457a12.824 12.824 0 0 1-5.285-5.412 17.494 17.494 0 0 1-1.847-8.235 17.077 17.077 0 0 1 1.868-8.193 13.059 13.059 0 0 1 5.285-5.369 18.069 18.069 0 0 1 16.088 0 12.8 12.8 0 0 1 5.242 5.369 17.413 17.413 0 0 1 1.825 8.193 17.668 17.668 0 0 1-1.825 8.235 12.731 12.731 0 0 1-5.242 5.412 18.115 18.115 0 0 1-16.109 0zm13.392-6.6q1.931-2.42 1.932-7.046 0-4.584-1.932-6.983a7.113 7.113 0 0 0-10.633-.021q-1.91 2.378-1.91 7 0 4.67 1.91 7.068a7.071 7.071 0 0 0 10.633-.021z" transform="translate(-500.506 -485.359)"/>
            <path id="Caminho_686" d="M754.386 517.542h-8.447l-3.9-10.06q-.68-1.7-3.184-1.7h-2.887v11.758h-7.853v-30.222h14.05q5.476 0 8.235 2.356a8.362 8.362 0 0 1 2.759 6.728 8.465 8.465 0 0 1-6.24 8.447 4.722 4.722 0 0 1 2.292 1.188 6.408 6.408 0 0 1 1.613 2.5zm-9.806-18.486a2.752 2.752 0 0 0 1.146-2.441 2.809 2.809 0 0 0-1.125-2.5 6.834 6.834 0 0 0-3.714-.764h-5.009v6.495h5.009a6.692 6.692 0 0 0 3.694-.791z" transform="translate(-653.657 -486.936)"/>
        </g>
        <g id="Grupo_1085" transform="translate(501.564 447.875)">
            <path id="Caminho_687" d="M1142.489 518.862v-30.223h7.98v23.771h12.777v6.452z" transform="translate(-1142.489 -488.639)"/>
            <path id="Caminho_688" d="M1288.3 518.862l-2.674-6.24h-13.416l-2.674 6.24h-7.98l14.135-30.223h6.282l14.177 30.223zm-13.5-12.225h8.235l-4.117-9.551z" transform="translate(-1238.338 -488.639)"/>
            <path id="Caminho_689" d="M1485.048 518.862h-8.448l-3.9-10.062q-.68-1.7-3.184-1.7h-2.886v11.758h-7.853v-30.219h14.05q5.476 0 8.235 2.356a8.362 8.362 0 0 1 2.759 6.728 8.465 8.465 0 0 1-6.24 8.447 4.721 4.721 0 0 1 2.292 1.189 6.4 6.4 0 0 1 1.613 2.5zm-9.806-18.486a2.751 2.751 0 0 0 1.146-2.441 2.808 2.808 0 0 0-1.125-2.5 6.832 6.832 0 0 0-3.714-.764h-5.009v6.495h5.009a6.688 6.688 0 0 0 3.693-.79z" transform="translate(-1397.096 -488.639)"/>
        </g>
        <g id="Grupo_1087" transform="translate(456.217 438)">
            <g id="Grupo_1086">
                <path id="Caminho_690" d="M946.561 456.271L928.29 438l-18.271 18.271h-.028l-.044 25.825h.044v.014l29.744-.014v-6.808h-8.043v-6.808h-6.808v6.808H916.8v-16.173l11.489-11.489 11.452 11.452v16.216h6.808v-19.01z" class="cls-1" transform="translate(-909.947 -438)"/>
                <path id="Caminho_691" d="M986.546 543.156h6.808v-4.277l-3.4-3.4-3.4 3.4z" class="cls-1" transform="translate(-971.609 -516.467)"/>
            </g>
        </g>
    </g>
</svg>
